{
  "accessors": [
    {
      "bufferView": 2,
      "componentType": 5126,
      "count": 65532,
      "max": [
        3.6190431118011475,
        2.7283871173858643,
        6.035827159881592
      ],
      "min": [
        -2.6646289825439453,
        -1.7031010389328003,
        0.028398999944329262
      ],
      "type": "VEC3"
    },
    {
      "bufferView": 2,
      "byteOffset": 786384,
      "componentType": 5126,
      "count": 65532,
      "max": [
        0.9999814033508301,
        0.9863771796226501,
        0.9999967813491821
      ],
      "min": [
        -0.999996542930603,
        -0.9999908208847046,
        -0.99998939037323
      ],
      "type": "VEC3"
    },
    {
      "bufferView": 3,
      "componentType": 5126,
      "count": 65532,
      "max": [
        0.9999977350234985,
        0.9999911189079285,
        0.998803436756134,
        1.0
      ],
      "min": [
        -0.9999974966049194,
        -0.999977171421051,
        -0.9986154437065125,
        -1.0
      ],
      "type": "VEC4"
    },
    {
      "bufferView": 1,
      "componentType": 5126,
      "count": 65532,
      "max": [
        0.8901879787445068,
        0.9459660053253174
      ],
      "min": [
        0.05139299854636192,
        0.1635199934244156
      ],
      "type": "VEC2"
    },
    {
      "bufferView": 0,
      "componentType": 5125,
      "count": 330324,
      "type": "SCALAR"
    },
    {
      "bufferView": 2,
      "byteOffset": 1572768,
      "componentType": 5126,
      "count": 65532,
      "max": [
        3.984416961669922,
        2.845757007598877,
        6.005690097808838
      ],
      "min": [
        -3.8673689365386963,
        -1.6332950592041016,
        -0.01717199943959713
      ],
      "type": "VEC3"
    },
    {
      "bufferView": 2,
      "byteOffset": 2359152,
      "componentType": 5126,
      "count": 65532,
      "max": [
        0.9999843835830688,
        0.9999915361404419,
        0.99994957447052
      ],
      "min": [
        -0.9999833106994629,
        -0.9999977350234985,
        -1.0
      ],
      "type": "VEC3"
    },
    {
      "bufferView": 3,
      "byteOffset": 1048512,
      "componentType": 5126,
      "count": 65532,
      "max": [
        0.9999983906745911,
        1.0,
        0.9990848302841187,
        1.0
      ],
      "min": [
        -0.9999996423721313,
        -0.9999514818191528,
        -0.9977185130119324,
        -1.0
      ],
      "type": "VEC4"
    },
    {
      "bufferView": 1,
      "byteOffset": 524256,
      "componentType": 5126,
      "count": 65532,
      "max": [
        0.9725679755210876,
        0.9450650215148926
      ],
      "min": [
        0.06291300058364868,
        0.01909100078046322
      ],
      "type": "VEC2"
    },
    {
      "bufferView": 0,
      "byteOffset": 1321296,
      "componentType": 5125,
      "count": 331215,
      "type": "SCALAR"
    },
    {
      "bufferView": 2,
      "byteOffset": 3145536,
      "componentType": 5126,
      "count": 65534,
      "max": [
        3.9787631034851074,
        2.8476510047912598,
        6.036839008331299
      ],
      "min": [
        -3.9846110343933105,
        -1.7021960020065308,
        -0.01759999990463257
      ],
      "type": "VEC3"
    },
    {
      "bufferView": 2,
      "byteOffset": 3931944,
      "componentType": 5126,
      "count": 65534,
      "max": [
        0.9998524188995361,
        0.999980092048645,
        0.9999241828918457
      ],
      "min": [
        -0.9999927282333374,
        -0.999995231628418,
        -1.0
      ],
      "type": "VEC3"
    },
    {
      "bufferView": 3,
      "byteOffset": 2097024,
      "componentType": 5126,
      "count": 65534,
      "max": [
        0.9999983906745911,
        0.9999997019767761,
        0.9982932209968567,
        1.0
      ],
      "min": [
        -0.9999992251396179,
        -0.9999803900718689,
        -0.999760091304779,
        -1.0
      ],
      "type": "VEC4"
    },
    {
      "bufferView": 1,
      "byteOffset": 1048512,
      "componentType": 5126,
      "count": 65534,
      "max": [
        0.9804120063781738,
        0.9479719996452332
      ],
      "min": [
        0.04956100136041641,
        0.020204000174999237
      ],
      "type": "VEC2"
    },
    {
      "bufferView": 0,
      "byteOffset": 2646156,
      "componentType": 5125,
      "count": 311445,
      "type": "SCALAR"
    },
    {
      "bufferView": 2,
      "byteOffset": 4718352,
      "componentType": 5126,
      "count": 11960,
      "max": [
        3.984416961669922,
        2.8476510047912598,
        6.036598205566406
      ],
      "min": [
        -3.984442949295044,
        -1.7001409530639648,
        -0.01759999990463257
      ],
      "type": "VEC3"
    },
    {
      "bufferView": 2,
      "byteOffset": 4861872,
      "componentType": 5126,
      "count": 11960,
      "max": [
        0.9999843835830688,
        0.999980092048645,
        0.999990701675415
      ],
      "min": [
        -0.9999386072158813,
        -0.9997519850730896,
        -0.9999996423721313
      ],
      "type": "VEC3"
    },
    {
      "bufferView": 3,
      "byteOffset": 3145568,
      "componentType": 5126,
      "count": 11960,
      "max": [
        0.9999977350234985,
        0.9999992847442627,
        0.9979333877563477,
        1.0
      ],
      "min": [
        -0.9999992251396179,
        -0.9999803900718689,
        -0.9793923497200012,
        -1.0
      ],
      "type": "VEC4"
    },
    {
      "bufferView": 1,
      "byteOffset": 1572784,
      "componentType": 5126,
      "count": 11960,
      "max": [
        0.9786670207977295,
        0.9477959871292114
      ],
      "min": [
        0.05339000001549721,
        0.01985500007867813
      ],
      "type": "VEC2"
    },
    {
      "bufferView": 0,
      "byteOffset": 3891936,
      "componentType": 5125,
      "count": 28104,
      "type": "SCALAR"
    }
  ],
  "asset": {
    "extras": {
      "author": "moxstudios (https://sketchfab.com/moxstudios)",
      "license": "CC-BY-4.0 (http://creativecommons.org/licenses/by/4.0/)",
      "source": "https://sketchfab.com/3d-models/batman-free-f2d4c36adb3545b6bdc1b88c0db50af2",
      "title": "Batman Free"
    },
    "generator": "Sketchfab-12.67.0",
    "version": "2.0"
  },
  "bufferViews": [
    {
      "buffer": 0,
      "byteLength": 4004352,
      "name": "floatBufferViews",
      "target": 34963
    },
    {
      "buffer": 0,
      "byteLength": 1668464,
      "byteOffset": 4004352,
      "byteStride": 8,
      "name": "floatBufferViews",
      "target": 34962
    },
    {
      "buffer": 0,
      "byteLength": 5005392,
      "byteOffset": 5672816,
      "byteStride": 12,
      "name": "floatBufferViews",
      "target": 34962
    },
    {
      "buffer": 0,
      "byteLength": 3336928,
      "byteOffset": 10678208,
      "byteStride": 16,
      "name": "floatBufferViews",
      "target": 34962
    }
  ],
  "buffers": [
    {
      "byteLength": 14015136,
      "uri": "scene.bin"
    }
  ],
  "extensionsUsed": [
    "KHR_materials_clearcoat"
  ],
  "images": [
    {
      "uri": "textures/body.001_baseColor.png"
    },
    {
      "uri": "textures/body.001_metallicRoughness.png"
    },
    {
      "uri": "textures/body.001_normal.png"
    }
  ],
  "materials": [
    {
      "doubleSided": true,
      "extensions": {
        "KHR_materials_clearcoat": {
          "clearcoatFactor": 0.20303987706982116,
          "clearcoatRoughnessFactor": 0.42316566323334315
        }
      },
      "name": "body.001",
      "normalTexture": {
        "index": 2
      },
      "pbrMetallicRoughness": {
        "baseColorTexture": {
          "index": 0
        },
        "metallicFactor": 0.0,
        "metallicRoughnessTexture": {
          "index": 1
        }
      }
    }
  ],
  "meshes": [
    {
      "name": "Object_0",
      "primitives": [
        {
          "attributes": {
            "NORMAL": 1,
            "POSITION": 0,
            "TANGENT": 2,
            "TEXCOORD_0": 3
          },
          "indices": 4,
          "material": 0,
          "mode": 4
        }
      ]
    },
    {
      "name": "Object_1",
      "primitives": [
        {
          "attributes": {
            "NORMAL": 6,
            "POSITION": 5,
            "TANGENT": 7,
            "TEXCOORD_0": 8
          },
          "indices": 9,
          "material": 0,
          "mode": 4
        }
      ]
    },
    {
      "name": "Object_2",
      "primitives": [
        {
          "attributes": {
            "NORMAL": 11,
            "POSITION": 10,
            "TANGENT": 12,
            "TEXCOORD_0": 13
          },
          "indices": 14,
          "material": 0,
          "mode": 4
        }
      ]
    },
    {
      "name": "Object_3",
      "primitives": [
        {
          "attributes": {
            "NORMAL": 16,
            "POSITION": 15,
            "TANGENT": 17,
            "TEXCOORD_0": 18
          },
          "indices": 19,
          "material": 0,
          "mode": 4
        }
      ]
    }
  ],
  "nodes": [
    {
      "children": [
        1
      ],
      "matrix": [
        1.0,
        0.0,
        0.0,
        0.0,
        0.0,
        2.220446049250313e-16,
        -1.0,
        0.0,
        0.0,
        1.0,
        2.220446049250313e-16,
        0.0,
        0.0,
        0.0,
        0.0,
        1.0
      ],
      "name": "Sketchfab_model"
    },
    {
      "children": [
        2,
        3,
        4,
        5
      ],
      "name": "Batman_free_des.obj.cleaner.materialmerger.gles"
    },
    {
      "mesh": 0,
      "name": "Object_2"
    },
    {
      "mesh": 1,
      "name": "Object_3"
    },
    {
      "mesh": 2,
      "name": "Object_4"
    },
    {
      "mesh": 3,
      "name": "Object_5"
    }
  ],
  "samplers": [
    {
      "magFilter": 9729,
      "minFilter": 9987,
      "wrapS": 10497,
      "wrapT": 10497
    }
  ],
  "scene": 0,
  "scenes": [
    {
      "name": "Sketchfab_Scene",
      "nodes": [
        0
      ]
    }
  ],
  "textures": [
    {
      "sampler": 0,
      "source": 0
    },
    {
      "sampler": 0,
      "source": 1
    },
    {
      "sampler": 0,
      "source": 2
    }
  ]
}
